<svg xmlns="http://www.w3.org/2000/svg" viewBox="0 0 408.73 545.92"><g id="Layer_2" data-name="Layer 2"><g id="Layer_1-2" data-name="Layer 1"><path d="M408.65,161.23a8.06,8.06,0,0,0-2.83-7.29l-51.58-42.28a8,8,0,0,0-5.06-1.82H321.47a117.58,117.58,0,0,0-5.54-28.64,6.56,6.56,0,0,0-.23-.62,117.83,117.83,0,0,0-223.58,0c-.08.2-.16.41-.23.62a116.63,116.63,0,0,0-5.54,28.65H60.73a8,8,0,0,0-5,1.75L3,153.88a8.12,8.12,0,0,0-2.7,8.38c.57,2,4.39,12.51,24.71,22.09C47.5,195,81.87,200.87,127.27,201.94l6,17.53L68.94,397.56A8,8,0,0,0,84,403l63.36-175.45h110l11.69,32A8,8,0,1,0,284,254l-12.64-34.55L277.27,202c47.48-.81,83.27-6.74,106.47-17.68,20.32-9.58,24.14-20.08,24.7-22.09A7.23,7.23,0,0,0,408.65,161.23ZM305.46,109.85H102.36a101.08,101.08,0,0,1,3.1-18.19h196.9A102,102,0,0,1,305.46,109.85ZM203.91,16a102,102,0,0,1,92.73,59.72H111.18A102,102,0,0,1,203.91,16ZM63.53,125.81H346.32l32.1,26.32H30.7Zm83.89,85.75-3.21-9.43H260.36l-3.21,9.43Zm118.44-25.4h-123c-67.38,0-99.55-9.9-114.62-18.06H380.5C365.43,176.26,333.26,186.16,265.86,186.16Z"/><path d="M115.6,135.92a8,8,0,1,0-3.16,9.83A8,8,0,0,0,115.6,135.92Z"/><path d="M180.68,135.92a8,8,0,1,0-3.16,9.83A8.07,8.07,0,0,0,180.68,135.92Z"/><path d="M245.76,135.92a8,8,0,1,0-3.17,9.83A8.07,8.07,0,0,0,245.76,135.92Z"/><path d="M310.83,135.92a8,8,0,1,0-3.16,9.83A8.06,8.06,0,0,0,310.83,135.92Z"/><path d="M305.78,313.64a8,8,0,0,0-15,5.49L321.48,403a8,8,0,0,0,15-5.49Z"/><path d="M291.83,293.27a8,8,0,1,0-10.26-1.18A8,8,0,0,0,291.83,293.27Z"/><path d="M67.8,91.52a7.89,7.89,0,0,0,1.52.14,8,8,0,0,0,7.83-6.48c5.76-30,24.81-51.72,25.08-52a8,8,0,0,0-11.9-10.65c-.9,1-22.23,25.12-28.86,59.66A8,8,0,0,0,67.8,91.52Z"/><path d="M334.68,94.52a8,8,0,0,0,7.8,6.32,8.68,8.68,0,0,0,1.67-.17,8,8,0,0,0,6.15-9.47C347,75.55,339.08,56.37,338.74,55.56A8,8,0,0,0,324,61.67C324.07,61.85,331.66,80.32,334.68,94.52Z"/><path d="M126.59,523.92v-29H77.06v-9.51l47.56-68.06H140.2v66.25h14.92v11.32H140.2v29Zm0-40.35V448q0-8.37.49-16.73h-.49c-3.28,6.23-5.91,10.82-8.86,15.74L91.66,483.25v.32Z"/><path d="M237,417.47c0,36.24-13.45,56.25-37.07,56.25-20.82,0-34.93-19.51-35.26-54.77,0-35.76,15.42-55.44,37.07-55.44C224.17,363.51,237,383.52,237,417.47Zm-57.89,1.64c0,27.72,8.52,43.46,21.64,43.46,14.76,0,21.82-17.22,21.82-44.44,0-26.24-6.73-43.46-21.65-43.46C188.25,374.67,179.07,390.08,179.07,419.11Z"/><path d="M294.85,545.92v-29H245.32v-9.51l47.56-68.06h15.58v66.25h14.92v11.32H308.46v29Zm0-40.35V470q0-8.37.49-16.73h-.49c-3.28,6.23-5.91,10.82-8.86,15.74l-26.08,36.25v.32Z"/></g></g></svg>